<svg width="19" height="28" viewBox="0 0 19 28" fill="none" xmlns="http://www.w3.org/2000/svg">
<path d="M8.24765 3.94429H9.80366V0.771089C9.80366 0.336092 9.45374 0 9.01874 0C8.58585 0 8.24765 0.34781 8.24765 0.782807V3.94429ZM9.01874 10.2457C11.1365 10.2457 12.8315 8.55068 12.8315 6.44459C12.8315 4.32679 11.1365 2.63179 9.01874 2.63179C6.91054 2.63179 5.21555 4.32679 5.21555 6.44459C5.21555 8.55068 6.91054 10.2457 9.01874 10.2457ZM9.01874 8.16186C8.02522 8.16186 7.30147 7.4285 7.30147 6.44459C7.30147 5.45108 8.02522 4.71771 9.01874 4.71771C10.0123 4.71771 10.7456 5.45108 10.7456 6.44459C10.7456 7.4285 10.0123 8.16186 9.01874 8.16186ZM8.58468 9.05506L6.46219 8.53804L1.87547 23.9608C1.69992 24.5332 2.0543 25.1386 2.64679 25.2928C3.23718 25.4524 3.80648 25.1215 3.98624 24.5215L8.58468 9.05506ZM2.46375 23.257L1.55016 26.674C1.45547 27.0527 1.65656 27.4284 2.04492 27.5273C2.43328 27.6316 2.79937 27.4209 2.90578 27.0326L3.81726 23.6273L2.46375 23.257ZM9.46241 9.05506L14.0608 24.5215C14.2406 25.1215 14.812 25.4524 15.4045 25.2928C15.9928 25.1386 16.3376 24.5332 16.1737 23.9608L11.587 8.53804L9.46241 9.05506ZM15.5833 23.257L14.2223 23.6273L15.1413 27.0326C15.2477 27.4209 15.6138 27.6316 16.0022 27.5273C16.3809 27.4284 16.5916 27.0527 16.4873 26.674L15.5833 23.257ZM0.8557 15.6286C0.371483 15.6286 0 15.9958 0 16.4726C0 16.9472 0.371483 17.3283 0.8557 17.3283H17.1935C17.666 17.3283 18.0471 16.9472 18.0471 16.4726C18.0471 15.9958 17.666 15.6286 17.1935 15.6286H0.8557ZM9.82171 14.4401C9.82171 13.9971 9.46171 13.6371 9.01874 13.6371C8.57788 13.6371 8.22538 13.9971 8.22538 14.4401V18.5051C8.22538 18.9459 8.57788 19.308 9.01874 19.308C9.46171 19.308 9.82171 18.9459 9.82171 18.5051V14.4401Z" fill="#078ff2"/>
</svg>